<svg width="301" height="51" viewBox="0 0 301 51" fill="none" xmlns="http://www.w3.org/2000/svg">
<path d="M44.4062 4.3125L29.4375 50H14.9062L0 4.3125H13.875L20.0938 27.4688C20.3229 28.3438 20.5833 29.4688 20.875 30.8438C21.1875 32.1979 21.4688 33.5521 21.7188 34.9062C21.9896 36.2604 22.1562 37.3646 22.2188 38.2188C22.3021 37.3646 22.4583 36.2708 22.6875 34.9375C22.9167 33.6042 23.1667 32.2708 23.4375 30.9375C23.7292 29.5833 24 28.4688 24.25 27.5938L30.5938 4.3125H44.4062ZM60.9375 14.5938V50H48.7188V14.5938H60.9375ZM54.875 0.34375C56.625 0.34375 58.1458 0.708333 59.4375 1.4375C60.75 2.16667 61.4062 3.61458 61.4062 5.78125C61.4062 7.88542 60.75 9.3125 59.4375 10.0625C58.1458 10.7917 56.625 11.1562 54.875 11.1562C53.0833 11.1562 51.5521 10.7917 50.2812 10.0625C49.0312 9.3125 48.4062 7.88542 48.4062 5.78125C48.4062 3.61458 49.0312 2.16667 50.2812 1.4375C51.5521 0.708333 53.0833 0.34375 54.875 0.34375ZM96.0938 50H66.7812V43.0312L81.4375 23.9375H67.625V14.5938H95.4062V22.1562L81.375 40.6562H96.0938V50ZM136.344 14.5938V50H127.125L125.594 45.5938H124.875C124.146 46.7812 123.219 47.75 122.094 48.5C120.99 49.2292 119.76 49.7604 118.406 50.0938C117.052 50.4479 115.646 50.625 114.188 50.625C111.875 50.625 109.781 50.1771 107.906 49.2812C106.052 48.3854 104.573 46.9792 103.469 45.0625C102.385 43.1458 101.844 40.6771 101.844 37.6562V14.5938H114.062V33.9375C114.062 36.2292 114.385 37.9792 115.031 39.1875C115.698 40.375 116.781 40.9688 118.281 40.9688C119.823 40.9688 121.01 40.5521 121.844 39.7188C122.698 38.8854 123.292 37.6562 123.625 36.0312C123.958 34.4062 124.125 32.4271 124.125 30.0938V14.5938H136.344ZM162.062 13.9688C166.542 13.9688 170.042 15.0833 172.562 17.3125C175.083 19.5208 176.344 22.6771 176.344 26.7812V50H167.875L165.531 45.3125H165.281C164.281 46.5625 163.25 47.5833 162.188 48.375C161.146 49.1458 159.948 49.7083 158.594 50.0625C157.24 50.4375 155.583 50.625 153.625 50.625C151.583 50.625 149.75 50.2083 148.125 49.375C146.5 48.5417 145.219 47.2812 144.281 45.5938C143.344 43.9062 142.875 41.7708 142.875 39.1875C142.875 35.3958 144.188 32.5833 146.812 30.75C149.438 28.9167 153.24 27.8854 158.219 27.6562L164.125 27.4688V26.9688C164.125 25.3854 163.729 24.2604 162.938 23.5938C162.167 22.9271 161.125 22.5938 159.812 22.5938C158.417 22.5938 156.854 22.8438 155.125 23.3438C153.417 23.8229 151.698 24.4479 149.969 25.2188L146.438 17.1562C148.479 16.1146 150.792 15.3229 153.375 14.7812C155.958 14.2396 158.854 13.9688 162.062 13.9688ZM164.188 34.1875L161.375 34.3125C159.125 34.3958 157.542 34.7917 156.625 35.5C155.729 36.1875 155.281 37.1771 155.281 38.4688C155.281 39.6771 155.604 40.5729 156.25 41.1562C156.896 41.7188 157.75 42 158.812 42C160.292 42 161.552 41.5312 162.594 40.5938C163.656 39.6562 164.188 38.4375 164.188 36.9375V34.1875ZM196.875 50H184.656V1.375H196.875V50ZM217.625 14.5938V50H205.406V14.5938H217.625ZM211.562 0.34375C213.312 0.34375 214.833 0.708333 216.125 1.4375C217.438 2.16667 218.094 3.61458 218.094 5.78125C218.094 7.88542 217.438 9.3125 216.125 10.0625C214.833 10.7917 213.312 11.1562 211.562 11.1562C209.771 11.1562 208.24 10.7917 206.969 10.0625C205.719 9.3125 205.094 7.88542 205.094 5.78125C205.094 3.61458 205.719 2.16667 206.969 1.4375C208.24 0.708333 209.771 0.34375 211.562 0.34375ZM252.781 50H223.469V43.0312L238.125 23.9375H224.312V14.5938H252.094V22.1562L238.062 40.6562H252.781V50ZM279.969 13.9688C280.635 13.9688 281.333 14.0208 282.062 14.125C282.792 14.2083 283.333 14.2812 283.688 14.3438L282.594 25.875C282.198 25.7708 281.688 25.6875 281.062 25.625C280.438 25.5417 279.562 25.5 278.438 25.5C277.667 25.5 276.844 25.5729 275.969 25.7188C275.094 25.8646 274.26 26.1771 273.469 26.6562C272.698 27.1146 272.062 27.8229 271.562 28.7812C271.062 29.7188 270.812 30.9896 270.812 32.5938V50H258.594V14.5938H267.688L269.594 20.25H270.188C270.833 19.0833 271.656 18.0312 272.656 17.0938C273.677 16.1354 274.812 15.375 276.062 14.8125C277.333 14.25 278.635 13.9688 279.969 13.9688ZM287.125 44.8125C287.125 42.6042 287.771 41.0521 289.062 40.1562C290.375 39.2604 291.948 38.8125 293.781 38.8125C295.51 38.8125 297.01 39.2604 298.281 40.1562C299.552 41.0521 300.188 42.6042 300.188 44.8125C300.188 46.9167 299.552 48.4375 298.281 49.375C297.01 50.3125 295.51 50.7812 293.781 50.7812C291.948 50.7812 290.375 50.3125 289.062 49.375C287.771 48.4375 287.125 46.9167 287.125 44.8125Z" fill="black"/>
</svg>
